HIERARCHY
ROOT hips
{
  OFFSET 0 9.313263304106702 1.2146308026317778
  CHANNELS 6 Xposition Yposition Zposition Yrotation Xrotation Zrotation
  JOINT spine
  {
    OFFSET -6.402521e-31 0.5173342420023708 0
    CHANNELS 3 Yrotation Xrotation Zrotation
    JOINT chest
    {
      OFFSET 0 1.130544299341115 0
      CHANNELS 3 Yrotation Xrotation Zrotation
      JOINT upperChest
      {
        OFFSET 0 1.0863555061129995 0
        CHANNELS 3 Yrotation Xrotation Zrotation
        JOINT neck
        {
          OFFSET 0 1.3773706506454462 0
          CHANNELS 3 Yrotation Xrotation Zrotation
          JOINT head
          {
            OFFSET 0 0.7374408940073979 0
            CHANNELS 3 Yrotation Xrotation Zrotation
            JOINT leftEye
            {
              OFFSET 0.25066580148932727 0.6408406698778757 0.15963719178883284
              CHANNELS 3 Yrotation Xrotation Zrotation
              End Site
              {
                OFFSET 0.25066580148932727 0.6408406698778757 0.15963719178883284
              }
            }
            JOINT rightEye
            {
              OFFSET -0.25066576739704244 0.6408406384191823 0.15963727561643756
              CHANNELS 3 Yrotation Xrotation Zrotation
              End Site
              {
                OFFSET -0.25066576739704244 0.6408406384191823 0.15963727561643756
              }
            }
          }
        }
        JOINT leftShoulder
        {
          OFFSET 0.3761817444281191 1.0539491987447769 0
          CHANNELS 3 Yrotation Xrotation Zrotation
          JOINT leftUpperArm
          {
            OFFSET 0.8702844380000002 0 0
            CHANNELS 3 Yrotation Xrotation Zrotation
            JOINT leftLowerArm
            {
              OFFSET 2.198527310000323 0 0
              CHANNELS 3 Yrotation Xrotation Zrotation
              JOINT leftHand
              {
                OFFSET 2.146852313968281 0 0
                CHANNELS 3 Yrotation Xrotation Zrotation
                JOINT leftIndexProximal
                {
                  OFFSET 0.6585177834681599 0.07380250427007962 0.18382213159631788
                  CHANNELS 3 Yrotation Xrotation Zrotation
                  JOINT leftIndexIntermediate
                  {
                    OFFSET 0.3323021288626682 -0.009606893929485771 -0.012820872253340998
                    CHANNELS 3 Yrotation Xrotation Zrotation
                    JOINT leftIndexDistal
                    {
                      OFFSET 0.2045908926985518 -0.0071133989147997845 -0.006828784783599051
                      CHANNELS 3 Yrotation Xrotation Zrotation
                      End Site
                      {
                        OFFSET 0.2045908926985518 -0.0071133989147997845 -0.006828784783599051
                      }
                    }
                  }
                }
                JOINT leftLittleProximal
                {
                  OFFSET 0.6110054258835662 0.07380246363125398 -0.29175655876064077
                  CHANNELS 3 Yrotation Xrotation Zrotation
                  JOINT leftLittleIntermediate
                  {
                    OFFSET 0.3144281999999998 -2.5124724523095665e-9 1.8658118799974588e-7
                    CHANNELS 3 Yrotation Xrotation Zrotation
                    JOINT leftLittleDistal
                    {
                      OFFSET 0.18116185580251631 0.002815456192251098 0.0034826415518049436
                      CHANNELS 3 Yrotation Xrotation Zrotation
                      End Site
                      {
                        OFFSET 0.18116185580251631 0.002815456192251098 0.0034826415518049436
                      }
                    }
                  }
                }
                JOINT leftMiddleProximal
                {
                  OFFSET 0.6637478005691111 0.07380246480054087 0.02046981859247815
                  CHANNELS 3 Yrotation Xrotation Zrotation
                  JOINT leftMiddleIntermediate
                  {
                    OFFSET 0.3705733999999994 -2.9611069152224445e-9 9.35054791928458e-8
                    CHANNELS 3 Yrotation Xrotation Zrotation
                    JOINT leftMiddleDistal
                    {
                      OFFSET 0.22861063500000056 -1.82673876025774e-9 -1.6740782024515788e-7
                      CHANNELS 3 Yrotation Xrotation Zrotation
                      End Site
                      {
                        OFFSET 0.22861063500000056 -1.82673876025774e-9 -1.6740782024515788e-7
                      }
                    }
                  }
                }
                JOINT leftRingProximal
                {
                  OFFSET 0.6561845547265777 0.07380246406440083 -0.13588087571513918
                  CHANNELS 3 Yrotation Xrotation Zrotation
                  JOINT leftRingIntermediate
                  {
                    OFFSET 0.3437531000000005 -2.746796123886952e-9 1.4935781944558357e-7
                    CHANNELS 3 Yrotation Xrotation Zrotation
                    JOINT leftRingDistal
                    {
                      OFFSET 0.1983118991198174 -0.002467117924596085 -0.004538141969590015
                      CHANNELS 3 Yrotation Xrotation Zrotation
                      End Site
                      {
                        OFFSET 0.1983118991198174 -0.002467117924596085 -0.004538141969590015
                      }
                    }
                  }
                }
                JOINT leftThumbProximal
                {
                  OFFSET 0.09767004258864787 -0.14930060425447422 -0.07008212897521154
                  CHANNELS 3 Yrotation Xrotation Zrotation
                  JOINT leftThumbIntermediate
                  {
                    OFFSET 0.36682123028154767 -0.015768465060082004 0.28693641268151077
                    CHANNELS 3 Yrotation Xrotation Zrotation
                    JOINT leftThumbDistal
                    {
                      OFFSET 0.21091084272403915 -0.016756648201192714 0.1933767059105508
                      CHANNELS 3 Yrotation Xrotation Zrotation
                      End Site
                      {
                        OFFSET 0.21091084272403915 -0.016756648201192714 0.1933767059105508
                      }
                    }
                  }
                }
              }
            }
          }
        }
        JOINT rightShoulder
        {
          OFFSET -0.37618174442811925 1.0539491987447769 0
          CHANNELS 3 Yrotation Xrotation Zrotation
          JOINT rightUpperArm
          {
            OFFSET -0.870284438 0 0
            CHANNELS 3 Yrotation Xrotation Zrotation
            JOINT rightLowerArm
            {
              OFFSET -2.1985273100003235 0 0
              CHANNELS 3 Yrotation Xrotation Zrotation
              JOINT rightHand
              {
                OFFSET -2.1468523139682802 0 0
                CHANNELS 3 Yrotation Xrotation Zrotation
                JOINT rightIndexProximal
                {
                  OFFSET -0.6585177834681599 0.07380250427007962 0.18382213159631788
                  CHANNELS 3 Yrotation Xrotation Zrotation
                  JOINT rightIndexIntermediate
                  {
                    OFFSET -0.3323021288626682 -0.009606893929485771 -0.012820872253340998
                    CHANNELS 3 Yrotation Xrotation Zrotation
                    JOINT rightIndexDistal
                    {
                      OFFSET -0.2045908926985518 -0.0071133989147997845 -0.006828784783599051
                      CHANNELS 3 Yrotation Xrotation Zrotation
                      End Site
                      {
                        OFFSET -0.2045908926985518 -0.0071133989147997845 -0.006828784783599051
                      }
                    }
                  }
                }
                JOINT rightLittleProximal
                {
                  OFFSET -0.6110054258835662 0.07380246363125398 -0.29175655876064077
                  CHANNELS 3 Yrotation Xrotation Zrotation
                  JOINT rightLittleIntermediate
                  {
                    OFFSET -0.3144281999999998 -2.5124724523095665e-9 1.8658118799974588e-7
                    CHANNELS 3 Yrotation Xrotation Zrotation
                    JOINT rightLittleDistal
                    {
                      OFFSET -0.18116185580251631 0.002815456192251098 0.0034826415518049436
                      CHANNELS 3 Yrotation Xrotation Zrotation
                      End Site
                      {
                        OFFSET -0.18116185580251631 0.002815456192251098 0.0034826415518049436
                      }
                    }
                  }
                }
                JOINT rightMiddleProximal
                {
                  OFFSET -0.6637478005691111 0.07380246480054087 0.02046981859247815
                  CHANNELS 3 Yrotation Xrotation Zrotation
                  JOINT rightMiddleIntermediate
                  {
                    OFFSET -0.3705733999999994 -2.9611069152224445e-9 9.35054791928458e-8
                    CHANNELS 3 Yrotation Xrotation Zrotation
                    JOINT rightMiddleDistal
                    {
                      OFFSET -0.22861063500000056 -1.82673876025774e-9 -1.6740782024515788e-7
                      CHANNELS 3 Yrotation Xrotation Zrotation
                      End Site
                      {
                        OFFSET -0.22861063500000056 -1.82673876025774e-9 -1.6740782024515788e-7
                      }
                    }
                  }
                }
                JOINT rightRingProximal
                {
                  OFFSET -0.6561845547265777 0.07380246406440083 -0.13588087571513918
                  CHANNELS 3 Yrotation Xrotation Zrotation
                  JOINT rightRingIntermediate
                  {
                    OFFSET -0.3437531000000005 -2.746796123886952e-9 1.4935781944558357e-7
                    CHANNELS 3 Yrotation Xrotation Zrotation
                    JOINT rightRingDistal
                    {
                      OFFSET -0.1983118991198174 -0.002467117924596085 -0.004538141969590015
                      CHANNELS 3 Yrotation Xrotation Zrotation
                      End Site
                      {
                        OFFSET -0.1983118991198174 -0.002467117924596085 -0.004538141969590015
                      }
                    }
                  }
                }
                JOINT rightThumbProximal
                {
                  OFFSET -0.09767004258864787 -0.14930060425447422 -0.07008212897521154
                  CHANNELS 3 Yrotation Xrotation Zrotation
                  JOINT rightThumbIntermediate
                  {
                    OFFSET -0.36682123028154767 -0.015768465060082004 0.28693641268151077
                    CHANNELS 3 Yrotation Xrotation Zrotation
                    JOINT rightThumbDistal
                    {
                      OFFSET -0.21091084272403915 -0.016756648201192714 0.1933767059105508
                      CHANNELS 3 Yrotation Xrotation Zrotation
                      End Site
                      {
                        OFFSET -0.21091084272403915 -0.016756648201192714 0.1933767059105508
                      }
                    }
                  }
                }
              }
            }
          }
        }
      }
    }
  }
  JOINT leftUpperLeg
  {
    OFFSET 0.7715603 -0.3993844658041501 0
    CHANNELS 3 Yrotation Xrotation Zrotation
    JOINT leftLowerLeg
    {
      OFFSET 0 -3.529830000249343 0
      CHANNELS 3 Yrotation Xrotation Zrotation
      JOINT leftFoot
      {
        OFFSET 0 -4.154939295409685 0.004208579085223096
        CHANNELS 3 Yrotation Xrotation Zrotation
        JOINT leftToes
        {
          OFFSET 0 -0.6353414391261847 1.10414981190622
          CHANNELS 3 Yrotation Xrotation Zrotation
          End Site
          {
            OFFSET 0 -0.6015820691747853 1.10414981190622
          }
        }
      }
    }
  }
  JOINT rightUpperLeg
  {
    OFFSET -0.7715603 -0.3993844658041501 0
    CHANNELS 3 Yrotation Xrotation Zrotation
    JOINT rightLowerLeg
    {
      OFFSET 0 -3.529830000249343 0
      CHANNELS 3 Yrotation Xrotation Zrotation
      JOINT rightFoot
      {
        OFFSET 0 -4.154939295409685 0.004208579085223096
        CHANNELS 3 Yrotation Xrotation Zrotation
        JOINT rightToes
        {
          OFFSET 0 -0.6353414391261847 1.10414981190622
          CHANNELS 3 Yrotation Xrotation Zrotation
          End Site
          {
            OFFSET 0 -0.6015820691747853 1.10414981190622
          }
        }
      }
    }
  }
}
MOTION
Frames: 4
Frame Time: 0.03333333333333333
0.4543116959658536 8.767485185102982 1.5293819345998425 -3.396996369539412 -0.10496964088761164 6.461100433604861 0.30438386998216227 4.069463399989694 -1.0700636604289175 1.2700051441526419 -1.5407917532638031 -4.255767402272367 0 0 0 0.3429860795139846 -4.76892191648019 -3.5039908453734943 -0.6039186213363223 -1.8891988897586045 -0.8078731508285697 0 0 0 0 0 0 -13.184731232725198 5.672660330731774 -9.680365572785886 8.109893285815541 10.515982510632126 -70.6571979340947 -26.479271645515237 -0.000021407366824302725 0.00002053169874851131 -7.274858716639752 38.5515649872581 -12.740078413843067 1.297503859178072 9.273576989764242 -11.994567558427963 2.47839877141786 0.26788483722389167 -16.81977858141798 0.17239269816948055 -0.020309639625993435 -3.8656283705529337 13.714744017576466 3.647071346270713 -31.228617697180226 2.6254024206918682 0.5864151153718553 -29.023051655949754 1.5159521130610287 0.09729206940837222 -6.668622338153109 7.5954991224387545 0.6045335976255226 -17.918068946714417 3.4308505559055096 0.6038561439316462 -26.90065566783537 1.8333015177760346 0.26699463509792914 -15.813607229040525 7.836375514074557 0.7535549272570187 -34.99346396471926 1.9757580227978786 0.41156000270716375 -16.88740350917642 1.1860492738088682 0.2904980479102035 -12.306745784504916 8.404564806512706 25.888818369377038 37.06859951932753 27.847120568408616 -2.1932888819190945 -17.54581579344901 -13.514132484543728 7.167206619059302 -0.8794826274426408 9.943802464736311 -0.3365038238202607 -0.6917522982357003 11.474634746355884 2.8798470962369938 74.10676674673117 47.23076163933139 0.000004404767989465045 -9.868199634650805e-7 28.0662904149452 27.291846491126638 -9.286979474565285 1.680760505969637 -0.9067436468062365 9.750323613613936 -3.335075381844222 0.6159979734075894 26.364359584019443 -0.5649578780474193 -0.17138248176559145 17.090301196179198 -10.42846304140499 2.5611340752346186 44.840802056622266 -4.291191802273713 1.490175578550607 48.973123873936174 -2.6881606349196057 -0.4465979618927704 43.286015678228566 -3.711846252609884 -0.9116499411679407 22.406705890249793 -4.290110734052781 1.1591582254548392 38.03180276965137 -3.1186631783691414 0.8225459940910702 31.101408324852727 -8.865806564607606 1.4125541720011199 40.032019043437785 -2.6376183560977586 0.7256782822243195 23.970484811454458 -0.24230341767978214 -0.12086231471047335 20.41932674717817 -7.631023779671126 15.743847106874242 -16.185413151093936 -4.356889373913801 3.5556080167900017 -14.742195862673176 8.937626496441126 -14.21310405814506 7.007587274157707 5.733658729204341 -12.618511360791453 -11.135104057708027 1.466363817946864 18.74311231942152 0.47647063205787304 -0.9247374762280149 -4.712739651366549 4.368853390102218 7.087503478952446e-7 -3.2821944636052 -0.0000014344020507808606 -4.373887629310258 -18.97153454029691 -7.037389013471226 16.810915719378496 62.57972201855871 9.785816752764388 -11.863046174614142 8.213836472352721 3.5734329980158743 -0.0000018859757804672065 -0.4185467491791613 0.0000013550736959749372
0.44066469777714123 8.797033483331852 1.4880550541448254 -2.7135982215043994 0.31910139087490974 5.976757166626834 -0.14601003653716538 3.885916189654981 -0.8904972284694475 -0.5257339418325068 -1.7763505993160993 -3.584629614492523 0 0 0 0.5594157434431569 -4.195950606549814 -3.3949370304993076 0.6535869765361352 -1.8563862090290093 -1.3035759546307526 0 0 0 0 0 0 -14.372446071884426 5.704587334150959 -9.100275583677663 3.2597910171796363 8.18654661705934 -69.82475857937824 -27.673388632387216 -0.00005052939914799308 0.00003271784022435614 -7.011974697948738 37.06527954748429 -5.896020634782704 1.4180431645365985 9.076862347673808 -9.076847051411242 2.479682103538021 0.2682769370628603 -16.832864667979443 0.17372357552262715 -0.020260447586651808 -3.8788682259774134 13.402980592294078 3.34584279600036 -30.192222722025377 2.6239890420523304 0.5857407056308318 -29.007445858225115 1.5144064506277837 0.09694326902227521 -6.652975237475115 7.310204567928694 0.509561614422858 -16.10354793105178 3.429914897095396 0.6034115699937838 -26.890292318136932 1.832252620596951 0.2666526950447509 -15.802663469675876 7.664075331349203 0.6749086805402129 -33.43143344631896 1.9715887748637841 0.40982613065203743 -16.84227415360805 1.1817892096919145 0.289133326638805 -12.261623527254073 8.39892884242547 26.038829562956014 36.4269221217318 27.364061431307718 -2.513068380498592 -17.56878767209749 -13.970031042095043 7.8360011106432825 2.214058719233767 9.937451157862442 -0.38999365960375487 -0.06219823125147653 8.500165763219647 4.53899460311721 75.09045352821398 44.82119313919719 -0.0000015823456989115623 0.000004568894788803529 30.19896983099908 30.878798877767107 -6.53106459369867 1.5597179306235878 -0.7491747451837012 8.665658966389302 -3.336276916450862 0.6165966634502124 26.377835586105814 -0.566349068801554 -0.17125636282599346 17.103784274578427 -10.575934147076604 2.642618572771662 43.992288076644606 -4.295249682008408 1.4939303607386718 49.027659411312364 -2.6940841397105055 -0.44463915914181285 43.34063840970433 -3.983119144385842 -0.705666507901315 21.004589384322326 -4.28741215190557 1.1572159204843449 37.99881588603199 -3.115943909019777 0.8208927048433092 31.069559532415006 -8.987046671165281 1.5016391554907755 38.944101092996895 -2.6337485324208982 0.7234849757851929 23.926077978852383 -0.23780180074506782 -0.12147651284093143 20.37494825357966 -8.544227995984336 16.086319754747194 -16.326925725810476 -3.5397605799882754 3.9146943966395065 -14.998006224916416 8.6290906089436 -14.136347914020977 7.117964789427914 6.624274565487344 -9.342395688094879 -10.281004822002867 -1.1561546394564173 18.212097787857708 -0.5990241751533534 -1.0289515440596264 -6.930675319243903 4.709419907974878 4.271970650722377e-7 -3.8780468318935992 -2.4480583751110335e-7 -3.0380446220523125 -24.55715031658367 -5.410095868047576 17.066020148934243 57.60974014098728 9.811125153235524 -13.943665845224896 4.002413345052867 3.7758895119389897 -0.14728012371620688 -2.4981444497840517 3.249325024890726
0.4205299507487904 8.812011371959338 1.4622298787727885 -1.1389705249771507 0.8215731256096847 4.93832284203122 -0.6431382113773907 3.288383608395714 -0.34991470111141576 -2.6603213094651452 -1.72536365723164 -2.8485511307098275 0 0 0 0.6699172357824519 -3.7696045353636847 -3.1913473234500658 1.5307005226260202 -1.5062377770868534 -1.4354726720960473 0 0 0 0 0 0 -16.519688610024595 5.882679476421155 -7.668098906929678 -0.07070004223319547 6.344443293621517 -68.76708065350242 -29.874326170928178 -0.00004436706417310267 -0.000010273498175709467 -7.844659617765852 34.418708236988714 -1.0554415787217606 1.6070153340616016 8.857278134388936 -5.6031582443431995 2.4830393376138806 0.2692750894791358 -16.867360871857457 0.1772742482470356 -0.020163659331118907 -3.913938027098996 12.990814547736676 2.9647637208619844 -28.765029867756045 2.6335946389061604 0.5904502090622887 -29.113759736353273 1.5249131991329268 0.09925761264588369 -6.759397230376093 7.037812696057558 0.43056778527129175 -14.142538315428462 3.4228914773780885 0.6000391915593809 -26.812504196404657 1.8247937660461704 0.2643077538725833 -15.724427044295862 7.628100524030399 0.6792519702597899 -31.815677554259786 1.9714625837604396 0.40978450812213346 -16.84108247045482 1.1817283904843496 0.2891057920881579 -12.260909259433097 8.450430356480265 26.192100396961223 35.75211649427164 26.74713217101101 -2.9611662320738255 -17.336390888603994 -14.332908238158884 8.441361205743595 4.8785619996969345 9.288405012296826 -0.492537570679885 0.8545251070662979 5.15890147259358 6.355448505674882 75.52744782663795 41.764880378697164 -4.1643534233144567e-7 0.000018253054517848287 30.647145106894396 34.50959458427534 -3.8002201538705997 1.287459714837386 -0.6601715471636133 8.246600069331558 -3.3532246662388974 0.6250127509437088 26.564796106692384 -0.5858231953927776 -0.1694037858892471 17.29093585977189 -10.619950976836794 2.664729194327233 43.7306451018769 -4.301213460341362 1.4993885834677638 49.107483561788776 -2.7027417039305286 -0.4417655645618755 43.4205802592571 -4.321201179600736 -0.5328176099602019 20.188000926995784 -4.285096517698882 1.155471092147843 37.96986570849198 -3.113594690144142 0.8194744948728824 31.042120288436536 -9.011431889597407 1.517453970687752 38.55562689743074 -2.6280825070015816 0.7202466221351368 23.861186655484786 -0.23117397863628636 -0.12239497526103636 20.30991497877248 -8.601594112121829 16.53439448668397 -16.060414606223443 -3.1797775123428225 4.089182595534605 -15.203705024864945 8.416746571105321 -14.082918780710356 7.194058113296827 7.536712780373497 -6.191287085517003 -8.587520374124542 -4.447540233000916 17.588746876602016 -1.7994701988750865 -1.172225022464814 -9.046815278368662 5.057640148213427 0.000003608113048981275 -4.665607693259755 -0.0000020454845656742407 -3.1547013070462686 -29.333041023931106 -3.2679032748209944 14.656956178844457 49.41219345552878 6.710357925341297 -16.15982939302503 2.8475148664483103 4.693397653045291 -0.025301393244085445 -4.486698916590363 0.3012444172388536
0.3873783349990845 8.811661980368873 1.4430986843113127 0.8328848961312596 1.1154404568532335 3.377822025122293 -1.0894835067618975 2.7067953669691183 0.4256209991328733 -4.7328029793097475 -1.3125568878551985 -2.118903790000795 0 0 0 0.5599503156018293 -3.736147680421876 -2.6656095508334423 1.849934659769109 -1.3651890086244678 -1.3077457920809077 0 0 0 0 0 0 -18.876478110661484 6.305946226344371 -5.437821066118759 -1.869353759478009 4.465303408620051 -67.59236900722033 -32.937286543894814 -0.000027893871260324373 0.0000386943957942987 -10.328954708589022 30.836001116050596 0.21324721820899728 1.7960899586877501 8.429382953835944 -3.803475244369469 2.483127277372333 0.26931439018138004 -16.86844230455229 0.17743665123078264 -0.02015315057750233 -3.9153851512975733 12.836970911456616 2.840444169080649 -28.349607241908597 2.6353126563892335 0.5913060025678876 -29.13300255916739 1.526816312623991 0.09966742461357284 -6.778641344614391 6.9647338891849815 0.41129786075885755 -13.503066780594654 3.4226965510355623 0.5999392412017721 -26.810193281971863 1.8245572752597488 0.26422984619866546 -15.721944304749195 7.6608624668828815 0.7050206859230574 -31.192891677718393 1.97153681999875 0.4098044922726821 -16.84188684685966 1.1818359081880523 0.2891349274847749 -12.26219204702491 8.551944200370707 26.348959230711948 35.04931421964137 26.07121403294001 -3.4142282212164075 -17.26397348368206 -15.01291030489726 8.55675838322764 5.485158909392209 7.757769043691466 -0.6635128531640994 2.5247614300228864 2.027256594947926 8.483275932717792 74.91077484995523 38.38483315964137 -0.0000079190979160881 0.000025020693525494782 29.684014799633225 37.45538295173268 -1.2407334883825354 1.1665106483288095 -0.4679289752566851 6.810047896533992 -3.367436844868026 0.6321071830801572 26.721932096163968 -0.6021922430549812 -0.16779353514043804 17.448206452907318 -10.871366890833706 2.7922202812476486 42.48165521136901 -4.299315070582307 1.4976562178784651 49.08218407053247 -2.699996767448332 -0.44267912957430605 43.39523557522778 -4.604556633268281 -0.3396478733245288 18.3859777277525 -4.283453528629818 1.154282717998825 37.949629921798284 -3.112010081314534 0.8185151821781956 31.023737278535133 -9.074034808003448 1.5530528895756133 37.40590817217952 -2.617422400870346 0.7142455105765552 23.73901664177546 -0.21872817266197078 -0.12408789225597573 20.187531537253204 -9.235504781678948 16.671451530674048 -16.284330403462683 -2.4003641892355025 4.4069944198039215 -15.38156994871515 8.119861880496162 -14.00744892569322 7.3006753532642366 8.525379025477639 -3.261160978892313 -5.791564740024937 -7.349835544254887 17.42368120276382 -2.8184120072506627 -3.137792260661366 -10.896786175089662 5.438201951960883 4.7864095435222e-8 -5.839324034455647 -0.0000010288890143070136 -5.1351658164253156 -33.52501412649262 -0.16610589519154878 11.89509934937307 38.99103539221596 2.932426736471438 -17.046721234581778 3.7567398836986543 5.202443705957328 0.0000014991526944242427 -1.3797730852588834 0.0000018033148476524582
